# xmcd
#
# Track frame offsets:
#	300
#	27595
#	52465
#	68314
#	79658
#	106259
#	126151
#	140707
#	156483
#	173905
#	193016
#	208683
#	224522
#	248488
#	266682
#	280572
#
# Disc length: 3921 seconds
#
# Revision: 0
# Processed by: cddbd v1.5.2PL0 Copyright (c) Steve Scherf et al.
# Submitted via: audiograbber 1.82.02
#
DISCID=f50f4d10
DTITLE=Ghost - Ghostdini The Great
DYEAR=2008
DGENRE=Hip-Hop
TTITLE0=Slept On TonyKilo Remix \nKilo Remix (Featuring Malice and Raekwon)
TTITLE1=The Champ Remix
TTITLE2=Toney Sigel A.K.A. Barrel Bros. (Featuring Beanie Sigel and Styles P)
TTITLE3=Slept On Tony
TTITLE4=Run Remix (Featuring Freeway, Jadakiss, Lil Wayne and Raekwon)
TTITLE5=Be Easy Remix (Featuring Ice Cube)
TTITLE6=Mighty Healthy
TTITLE7=It's Over
TTITLE8=Apollo Kids (Featuring Raekwon)
TTITLE9=9 Milli Bros. (Featuring Wu-Tang Clan)
TTITLE10=Walk Around
TTITLE11=Street Opera (Featuring Sun God
TTITLE12=All That I Got Is You (Featuring Mary J. Blige)
TTITLE13=Back Like That Remix (Featuring Kanye West and Ne-Yo)
TTITLE14=Cherchez LaGhost
TTITLE15=Ghostface X-mas
EXTD=
EXTT0=
EXTT1=
EXTT2=
EXTT3=
EXTT4=
EXTT5=
EXTT6=
EXTT7=
EXTT8=
EXTT9=
EXTT10=
EXTT11=
EXTT12=
EXTT13=
EXTT14=
EXTT15=
PLAYORDER=
